<svg width="32" height="32" viewBox="0 0 32 32" fill="none" xmlns="http://www.w3.org/2000/svg">
<path d="M17.3333 21.6668C16.781 21.6668 16.3333 22.1145 16.3333 22.6668C16.3333 23.2191 16.781 23.6668 17.3333 23.6668H22.6667C23.219 23.6668 23.6667 23.2191 23.6667 22.6668C23.6667 22.1145 23.219 21.6668 22.6667 21.6668H17.3333Z" fill="#2D264B"/>
<path fill-rule="evenodd" clip-rule="evenodd" d="M21.7934 4.42765C20.641 4.33349 19.207 4.33349 17.3781 4.3335H14.6219C12.793 4.33349 11.359 4.33349 10.2066 4.42765C9.03306 4.52353 8.06358 4.722 7.18607 5.16911C5.7435 5.90414 4.57065 7.07699 3.83562 8.51957C3.19192 9.7829 3.05413 11.266 3.01491 13.3144C3 14.0933 3 14.9805 3 15.9924V16.0449C2.99999 17.8739 2.99999 19.3078 3.09415 20.4602C3.19003 21.6338 3.3885 22.6033 3.83562 23.4808C4.57065 24.9233 5.7435 26.0962 7.18607 26.8312C8.06358 27.2783 9.03306 27.4768 10.2066 27.5727C11.359 27.6668 12.7929 27.6668 14.6218 27.6668H17.3781C19.207 27.6668 20.641 27.6668 21.7934 27.5727C22.9669 27.4768 23.9364 27.2783 24.8139 26.8312C26.2565 26.0962 27.4294 24.9233 28.1644 23.4808C28.6115 22.6033 28.81 21.6338 28.9059 20.4602C29 19.3078 29 17.8739 29 16.045V15.9924C29 14.9805 29 14.0933 28.9851 13.3144C28.9459 11.266 28.8081 9.7829 28.1644 8.51957C27.4294 7.07699 26.2565 5.90414 24.8139 5.16911C23.9364 4.722 22.9669 4.52353 21.7934 4.42765ZM8.09405 6.95113C8.64263 6.67162 9.31961 6.50678 10.3694 6.421C11.431 6.33427 12.7833 6.3335 14.6667 6.3335H17.3333C19.2167 6.3335 20.569 6.33427 21.6306 6.421C22.6804 6.50678 23.3574 6.67162 23.9059 6.95113C24.9722 7.49441 25.8391 8.3613 26.3824 9.42755C26.7212 10.0925 26.8833 10.9231 26.9524 12.3335H5.04756C5.11669 10.9231 5.27884 10.0925 5.61763 9.42755C6.16091 8.3613 7.0278 7.49441 8.09405 6.95113ZM5 16.0002C5 15.3938 5.00001 14.8411 5.00306 14.3335H26.9969C27 14.8411 27 15.3938 27 16.0002C27 17.8835 26.9992 19.2359 26.9125 20.2974C26.8267 21.3472 26.6619 22.0242 26.3824 22.5728C25.8391 23.639 24.9722 24.5059 23.9059 25.0492C23.3574 25.3287 22.6804 25.4935 21.6306 25.5793C20.569 25.6661 19.2167 25.6668 17.3333 25.6668H14.6667C12.7833 25.6668 11.431 25.6661 10.3694 25.5793C9.31961 25.4935 8.64263 25.3287 8.09405 25.0492C7.0278 24.5059 6.16091 23.639 5.61763 22.5728C5.33812 22.0242 5.17328 21.3472 5.08751 20.2974C5.00078 19.2359 5 17.8835 5 16.0002Z" fill="#2D264B"/>
</svg>
