<svg width="33" height="32" viewBox="0 0 33 32" fill="none" xmlns="http://www.w3.org/2000/svg">
<path d="M23.1051 21.9352H6.2501C6.01115 21.9385 5.77892 21.8561 5.59548 21.7029C5.41203 21.5497 5.28951 21.3359 5.2501 21.1002L4.9151 19.1002C4.88598 18.9678 4.88409 18.8309 4.90954 18.6977C4.93499 18.5645 4.98725 18.4379 5.06315 18.3256C5.13904 18.2132 5.23699 18.1175 5.35104 18.0442C5.46508 17.9709 5.59284 17.9215 5.72655 17.8991C5.86026 17.8767 5.99713 17.8818 6.12884 17.9139C6.26055 17.9461 6.38435 18.0046 6.49271 18.0861C6.60107 18.1676 6.69174 18.2702 6.75919 18.3878C6.82665 18.5054 6.86949 18.6355 6.88511 18.7702L7.0801 19.9302H22.1401L22.5701 7.38521H5.1251L6.0401 13.1852C6.08011 13.4463 6.01518 13.7126 5.85949 13.926C5.7038 14.1394 5.47 14.2826 5.20914 14.3242C4.94828 14.3658 4.68156 14.3025 4.46721 14.1481C4.25286 13.9937 4.10831 13.7608 4.0651 13.5002L2.9701 6.54521C2.94755 6.40151 2.95661 6.25463 2.99666 6.11479C3.03671 5.97496 3.10679 5.84555 3.20199 5.73558C3.2972 5.62561 3.41526 5.53774 3.54792 5.47809C3.68058 5.41844 3.82466 5.38845 3.9701 5.39021H23.6201C23.7544 5.39013 23.8874 5.41711 24.011 5.46954C24.1347 5.52196 24.2465 5.59877 24.3399 5.69537C24.4332 5.79197 24.5061 5.90638 24.5543 6.03177C24.6024 6.15716 24.6248 6.29097 24.6201 6.42521L24.1201 20.9652C24.1123 21.2278 24.0014 21.4768 23.8115 21.6583C23.6215 21.8398 23.3678 21.9393 23.1051 21.9352Z" fill="#323232"/>
<path d="M23.6052 7.39014C23.3411 7.39035 23.0877 7.2861 22.9002 7.10014C22.8072 7.00726 22.7335 6.89698 22.6831 6.77558C22.6328 6.65418 22.6069 6.52405 22.6069 6.39264C22.6069 6.26122 22.6328 6.13109 22.6831 6.0097C22.7335 5.8883 22.8072 5.77801 22.9002 5.68514L25.4002 3.18514C25.5869 2.99734 25.8404 2.89125 26.1052 2.89014H29.0402C29.3054 2.89014 29.5598 2.99549 29.7473 3.18303C29.9348 3.37057 30.0402 3.62492 30.0402 3.89014C30.0402 4.15535 29.9348 4.40971 29.7473 4.59724C29.5598 4.78478 29.3054 4.89014 29.0402 4.89014H26.5402L24.3152 7.10014C24.2218 7.19282 24.1109 7.26614 23.9891 7.31591C23.8673 7.36567 23.7368 7.3909 23.6052 7.39014ZM22.6802 13.5401H12.6802C12.415 13.5401 12.1606 13.4348 11.9731 13.2472C11.7856 13.0597 11.6802 12.8054 11.6802 12.5401C11.6802 12.2749 11.7856 12.0206 11.9731 11.833C12.1606 11.6455 12.415 11.5401 12.6802 11.5401H22.6802C22.9454 11.5401 23.1998 11.6455 23.3873 11.833C23.5748 12.0206 23.6802 12.2749 23.6802 12.5401C23.6802 12.8054 23.5748 13.0597 23.3873 13.2472C23.1998 13.4348 22.9454 13.5401 22.6802 13.5401ZM8.7952 29.1151C8.23251 29.1151 7.68246 28.9483 7.2146 28.6357C6.74674 28.3231 6.38209 27.8787 6.16676 27.3589C5.95143 26.839 5.89509 26.267 6.00486 25.7151C6.11464 25.1632 6.3856 24.6563 6.78348 24.2584C7.18136 23.8605 7.68829 23.5896 8.24016 23.4798C8.79204 23.37 9.36408 23.4264 9.88393 23.6417C10.4038 23.857 10.8481 24.2217 11.1607 24.6895C11.4733 25.1574 11.6402 25.7075 11.6402 26.2701C11.6402 27.0247 11.3405 27.7483 10.8069 28.2819C10.2734 28.8154 9.54974 29.1151 8.7952 29.1151ZM8.7952 25.4301C8.58296 25.4465 8.38472 25.5424 8.2401 25.6986C8.09549 25.8547 8.01515 26.0598 8.01515 26.2726C8.01515 26.4855 8.09549 26.6905 8.2401 26.8467C8.38472 27.0029 8.58296 27.0988 8.7952 27.1151C8.91129 27.1241 9.02799 27.1089 9.13795 27.0707C9.24792 27.0324 9.34879 26.9718 9.43423 26.8927C9.51967 26.8136 9.58784 26.7177 9.63446 26.611C9.68108 26.5043 9.70515 26.3891 9.70515 26.2726C9.70515 26.1562 9.68108 26.041 9.63446 25.9343C9.58784 25.8276 9.51967 25.7317 9.43423 25.6526C9.34879 25.5735 9.24792 25.5129 9.13795 25.4746C9.02799 25.4363 8.91129 25.4212 8.7952 25.4301ZM19.1602 29.1151C18.5973 29.1161 18.0468 28.9501 17.5782 28.6381C17.1097 28.3261 16.7443 27.8821 16.5282 27.3623C16.3121 26.8426 16.255 26.2704 16.3643 25.7182C16.4735 25.166 16.744 24.6586 17.1417 24.2602C17.5394 23.8618 18.0463 23.5904 18.5983 23.4802C19.1503 23.37 19.7226 23.426 20.2428 23.6412C20.7629 23.8564 21.2075 24.2211 21.5204 24.689C21.8332 25.157 22.0002 25.7072 22.0002 26.2701C22.0002 27.0238 21.7011 27.7467 21.1687 28.2801C20.6362 28.8135 19.9139 29.1138 19.1602 29.1151ZM19.1602 25.4301C18.948 25.4465 18.7497 25.5424 18.6051 25.6986C18.4605 25.8547 18.3801 26.0598 18.3801 26.2726C18.3801 26.4855 18.4605 26.6905 18.6051 26.8467C18.7497 27.0029 18.948 27.0988 19.1602 27.1151C19.2763 27.1241 19.393 27.1089 19.503 27.0707C19.6129 27.0324 19.7138 26.9718 19.7992 26.8927C19.8847 26.8136 19.9528 26.7177 19.9995 26.611C20.0461 26.5043 20.0701 26.3891 20.0701 26.2726C20.0701 26.1562 20.0461 26.041 19.9995 25.9343C19.9528 25.8276 19.8847 25.7317 19.7992 25.6526C19.7138 25.5735 19.6129 25.5129 19.503 25.4746C19.393 25.4363 19.2763 25.4212 19.1602 25.4301Z" fill="#323232"/>
</svg>
