<svg width="81" height="81" viewBox="0 0 81 81" fill="none" xmlns="http://www.w3.org/2000/svg">
<path opacity="0.3" d="M80.5 40.959C80.5 63.0504 62.5914 80.959 40.5 80.959C18.4086 80.959 0.5 63.0504 0.5 40.959C0.5 18.8676 18.4086 0.958984 40.5 0.958984C62.5914 0.958984 80.5 18.8676 80.5 40.959ZM11.4071 40.959C11.4071 57.0265 24.4325 70.0518 40.5 70.0518C56.5675 70.0518 69.5929 57.0265 69.5929 40.959C69.5929 24.8914 56.5675 11.8661 40.5 11.8661C24.4325 11.8661 11.4071 24.8914 11.4071 40.959Z" fill="#323232"/>
<circle cx="40.5" cy="40.959" r="29" fill="black"/>
<path d="M54.6417 25.959H47.9883L48.8217 34.2923C48.8217 34.2923 50.4883 35.959 52.9883 35.959C54.3007 35.9607 55.5685 35.483 56.5533 34.6157C56.6574 34.5184 56.735 34.3961 56.7788 34.2605C56.8225 34.1249 56.831 33.9804 56.8033 33.8407L55.6267 26.7923C55.5873 26.5595 55.4668 26.3481 55.2865 26.1955C55.1063 26.043 54.8778 25.9592 54.6417 25.959V25.959Z" stroke="white" stroke-width="2"/>
<path d="M47.9883 25.959L48.8217 34.2923C48.8217 34.2923 47.155 35.959 44.655 35.959C42.155 35.959 40.4883 34.2923 40.4883 34.2923V25.959H47.9883Z" stroke="white" stroke-width="2"/>
<path d="M40.4883 25.959V34.2923C40.4883 34.2923 38.8217 35.959 36.3217 35.959C33.8217 35.959 32.155 34.2923 32.155 34.2923L32.9883 25.959H40.4883Z" stroke="white" stroke-width="2"/>
<path d="M32.9883 25.959H26.3367C26.1 25.9589 25.871 26.0428 25.6903 26.1956C25.5096 26.3485 25.389 26.5606 25.35 26.794L24.175 33.8423C24.1475 33.9821 24.1561 34.1266 24.1998 34.2621C24.2435 34.3977 24.321 34.5199 24.425 34.6173C24.9717 35.1007 26.1933 35.9607 27.9883 35.9607C30.4883 35.9607 32.155 34.294 32.155 34.294L32.9883 25.9607V25.959Z" stroke="white" stroke-width="2"/>
<path d="M25.5 35.959V52.6257C25.5 53.5097 25.8512 54.3576 26.4763 54.9827C27.1014 55.6078 27.9493 55.959 28.8333 55.959H52.1667C53.0507 55.959 53.8986 55.6078 54.5237 54.9827C55.1488 54.3576 55.5 53.5097 55.5 52.6257V35.959" stroke="white" stroke-width="2"/>
<path d="M45.2217 55.9593V45.9593C45.2217 45.0753 44.8705 44.2274 44.2454 43.6023C43.6202 42.9772 42.7724 42.626 41.8883 42.626H38.555C37.6709 42.626 36.8231 42.9772 36.198 43.6023C35.5729 44.2274 35.2217 45.0753 35.2217 45.9593V55.9593" stroke="white" stroke-width="2" stroke-miterlimit="16"/>
</svg>
