<svg width="80" height="80" viewBox="0 0 80 80" fill="none" xmlns="http://www.w3.org/2000/svg">
<path opacity="0.3" d="M80 40C80 62.0914 62.0914 80 40 80C17.9086 80 0 62.0914 0 40C0 17.9086 17.9086 0 40 0C62.0914 0 80 17.9086 80 40ZM10.9071 40C10.9071 56.0675 23.9325 69.0929 40 69.0929C56.0675 69.0929 69.0929 56.0675 69.0929 40C69.0929 23.9325 56.0675 10.9071 40 10.9071C23.9325 10.9071 10.9071 23.9325 10.9071 40Z" fill="black"/>
<circle cx="40" cy="40" r="29" fill="black"/>
<g clip-path="url(#clip0_554_6110)">
<path d="M31.6667 51.6667C33.5076 51.6667 35 50.1743 35 48.3333C35 46.4924 33.5076 45 31.6667 45C29.8257 45 28.3333 46.4924 28.3333 48.3333C28.3333 50.1743 29.8257 51.6667 31.6667 51.6667Z" stroke="white" stroke-width="2" stroke-linecap="round" stroke-linejoin="round"/>
<path d="M48.3333 51.6667C50.1743 51.6667 51.6667 50.1743 51.6667 48.3333C51.6667 46.4924 50.1743 45 48.3333 45C46.4924 45 45 46.4924 45 48.3333C45 50.1743 46.4924 51.6667 48.3333 51.6667Z" stroke="white" stroke-width="2" stroke-linecap="round" stroke-linejoin="round"/>
<path d="M28.3333 48.334H27C25.8954 48.334 25 47.4386 25 46.334V41.6673M23.3333 28.334H39.6666C40.7712 28.334 41.6666 29.2294 41.6666 30.334V48.334M35 48.334H45M51.6667 48.334H53C54.1046 48.334 55 47.4386 55 46.334V38.334M55 38.334H41.6666M55 38.334L50.5826 30.9717C50.2211 30.3692 49.5701 30.0007 48.8676 30.0007H41.6666" stroke="white" stroke-width="2" stroke-linecap="round" stroke-linejoin="round"/>
<path d="M28 48H26.6667C25.5621 48 24.6667 47.1046 24.6667 46V41.3333M23 28H39.3333C40.4379 28 41.3333 28.8954 41.3333 30V48M35 48H44.6667M52 48H52.6667C53.7712 48 54.6667 47.1046 54.6667 46V38M54.6667 38H41.3333M54.6667 38L50.2493 30.6377C49.8878 30.0353 49.2368 29.6667 48.5343 29.6667H41.3333" stroke="white" stroke-width="2" stroke-linecap="round" stroke-linejoin="round"/>
<path d="M25 31.8184H31.6667" stroke="white" stroke-width="2" stroke-linecap="round" stroke-linejoin="round"/>
<path d="M21.8182 35.4541H28.4848" stroke="white" stroke-width="2" stroke-linecap="round" stroke-linejoin="round"/>
<path d="M25 39.0908H31.6667" stroke="white" stroke-width="2" stroke-linecap="round" stroke-linejoin="round"/>
</g>
<defs>
<clipPath id="clip0_554_6110">
<rect width="40" height="40" fill="white" transform="translate(20 20)"/>
</clipPath>
</defs>
</svg>
