<svg width="18" height="18" viewBox="0 0 18 18" fill="none" xmlns="http://www.w3.org/2000/svg">
<path fill-rule="evenodd" clip-rule="evenodd" d="M17.5335 9.4883C17.5335 10.0654 17.4747 10.6417 17.3593 11.2034C17.2468 11.7518 17.0801 12.2902 16.8618 12.8049C16.6485 13.3105 16.3839 13.7977 16.0747 14.2521C15.7701 14.7036 15.4192 15.1271 15.0338 15.5133C14.6475 15.8977 14.2225 16.2476 13.7712 16.5535C13.3154 16.8605 12.8275 17.1247 12.3216 17.3391C11.8061 17.5562 11.2665 17.7227 10.7186 17.835C10.1561 17.9507 9.57767 18.0098 8.99975 18.0098C8.42139 18.0098 7.84303 17.9507 7.28133 17.835C6.73257 17.7227 6.19295 17.5562 5.67792 17.3391C5.17207 17.1247 4.68369 16.8605 4.22784 16.5535C3.77657 16.2476 3.35155 15.8977 2.96611 15.5133C2.58027 15.1271 2.2294 14.7036 1.92439 14.2521C1.61687 13.7977 1.35184 13.3105 1.13768 12.8049C0.919305 12.2902 0.752236 11.7518 0.63931 11.2034C0.525147 10.6417 0.466797 10.0654 0.466797 9.4883C0.466797 8.91077 0.525114 8.33325 0.639343 7.77273C0.75227 7.22432 0.919338 6.68509 1.13771 6.17123C1.35187 5.66528 1.6169 5.17764 1.92442 4.72325C2.22943 4.27139 2.5803 3.84862 2.96614 3.46207C3.35158 3.07759 3.7766 2.72852 4.22787 2.42312C4.68372 2.11478 5.1721 1.85059 5.67795 1.63587C6.19298 1.41822 6.73257 1.25139 7.28137 1.13989C7.84306 1.02506 8.42142 0.966797 8.99978 0.966797C9.57771 0.966797 10.1561 1.02506 10.7186 1.13989C11.2665 1.25142 11.8061 1.41825 12.3216 1.63587C12.8275 1.85056 13.3154 2.11478 13.7713 2.42312C14.2225 2.72852 14.6476 3.07759 15.0338 3.46207C15.4193 3.84862 15.7701 4.27139 16.0747 4.72325C16.3839 5.17764 16.6485 5.66531 16.8618 6.17123C17.0801 6.68509 17.2468 7.22432 17.3593 7.77273C17.4747 8.33325 17.5335 8.91077 17.5335 9.4883ZM5.89038 2.90618C3.85817 3.86445 2.34143 5.73434 1.86848 7.98787C2.0606 7.98954 5.09742 8.02783 8.59634 7.09951C7.33505 4.86178 5.98748 3.03562 5.89038 2.90618ZM9.20012 8.22008C5.44786 9.34181 1.84724 9.2611 1.71808 9.25613C1.71597 9.33434 1.71223 9.41005 1.71223 9.48829C1.71223 11.3577 2.41851 13.062 3.57941 14.3507C3.5769 14.3469 5.5712 10.8139 9.50389 9.54406C9.59888 9.51244 9.69558 9.48412 9.7914 9.45667C9.6085 9.04311 9.40887 8.62867 9.20012 8.22008ZM13.8125 4.02672C12.5295 2.89701 10.8448 2.21176 8.99972 2.21176C8.4076 2.21176 7.83298 2.28333 7.28254 2.41564C7.3917 2.56212 8.76054 4.37541 10.0068 6.66053C12.7566 5.63115 13.7945 4.05333 13.8125 4.02672ZM10.2882 10.6625C10.2719 10.6679 10.2557 10.6725 10.2398 10.6783C5.94009 12.1751 4.53595 15.1915 4.52076 15.2245C5.75793 16.1852 7.30968 16.7648 8.99977 16.7648C10.009 16.7648 10.9703 16.5596 11.8449 16.1881C11.737 15.5523 11.3136 13.3238 10.2882 10.6625ZM13.072 15.5232C14.7083 14.4206 15.8705 12.6697 16.1946 10.6416C16.0446 10.5934 14.0058 9.94886 11.6536 10.3254C12.6095 12.9485 12.9978 15.0847 13.072 15.5232ZM10.5678 7.74487C10.7369 8.0919 10.9007 8.4451 11.0519 8.80007C11.1057 8.92741 11.1582 9.05225 11.2095 9.17705C13.7129 8.86247 16.1793 9.39174 16.2847 9.41335C16.2681 7.68828 15.6501 6.10505 14.6276 4.86555C14.6138 4.88506 13.445 6.57148 10.5678 7.74487Z" fill="#3A3A3C"/>
</svg>
