<svg width="49" height="49" viewBox="0 0 49 49" fill="none" xmlns="http://www.w3.org/2000/svg">
<path d="M4.5 10.4998H11.59C11.8336 11.8904 12.5598 13.1506 13.6407 14.0586C14.7217 14.9667 16.0882 15.4645 17.5 15.4645C18.9118 15.4645 20.2783 14.9667 21.3593 14.0586C22.4402 13.1506 23.1664 11.8904 23.41 10.4998H44.5C44.7652 10.4998 45.0196 10.3945 45.2071 10.2069C45.3946 10.0194 45.5 9.76505 45.5 9.49983C45.5 9.23461 45.3946 8.98026 45.2071 8.79272C45.0196 8.60519 44.7652 8.49983 44.5 8.49983H23.41C23.1664 7.10925 22.4402 5.8491 21.3593 4.94103C20.2783 4.03297 18.9118 3.53516 17.5 3.53516C16.0882 3.53516 14.7217 4.03297 13.6407 4.94103C12.5598 5.8491 11.8336 7.10925 11.59 8.49983H4.5C4.23478 8.49983 3.98043 8.60519 3.79289 8.79272C3.60536 8.98026 3.5 9.23461 3.5 9.49983C3.5 9.76505 3.60536 10.0194 3.79289 10.2069C3.98043 10.3945 4.23478 10.4998 4.5 10.4998ZM17.5 5.49983C18.2911 5.49983 19.0645 5.73443 19.7223 6.17395C20.3801 6.61348 20.8928 7.23819 21.1955 7.9691C21.4983 8.7 21.5775 9.50427 21.4231 10.2802C21.2688 11.0561 20.8878 11.7688 20.3284 12.3283C19.769 12.8877 19.0563 13.2686 18.2804 13.423C17.5044 13.5773 16.7002 13.4981 15.9693 13.1953C15.2384 12.8926 14.6136 12.3799 14.1741 11.7221C13.7346 11.0643 13.5 10.291 13.5 9.49983C13.5 8.43896 13.9214 7.42155 14.6716 6.6714C15.4217 5.92126 16.4391 5.49983 17.5 5.49983ZM44.5 23.4998H37.41C37.1664 22.1092 36.4402 20.8491 35.3593 19.941C34.2783 19.033 32.9118 18.5352 31.5 18.5352C30.0882 18.5352 28.7217 19.033 27.6407 19.941C26.5598 20.8491 25.8336 22.1092 25.59 23.4998H4.5C4.23478 23.4998 3.98043 23.6052 3.79289 23.7927C3.60536 23.9803 3.5 24.2346 3.5 24.4998C3.5 24.765 3.60536 25.0194 3.79289 25.2069C3.98043 25.3945 4.23478 25.4998 4.5 25.4998H25.59C25.8336 26.8904 26.5598 28.1506 27.6407 29.0586C28.7217 29.9667 30.0882 30.4645 31.5 30.4645C32.9118 30.4645 34.2783 29.9667 35.3593 29.0586C36.4402 28.1506 37.1664 26.8904 37.41 25.4998H44.5C44.7652 25.4998 45.0196 25.3945 45.2071 25.2069C45.3946 25.0194 45.5 24.765 45.5 24.4998C45.5 24.2346 45.3946 23.9803 45.2071 23.7927C45.0196 23.6052 44.7652 23.4998 44.5 23.4998ZM31.5 28.4998C30.7089 28.4998 29.9355 28.2652 29.2777 27.8257C28.6199 27.3862 28.1072 26.7615 27.8045 26.0306C27.5017 25.2997 27.4225 24.4954 27.5769 23.7195C27.7312 22.9435 28.1122 22.2308 28.6716 21.6714C29.231 21.112 29.9437 20.731 30.7196 20.5767C31.4956 20.4223 32.2998 20.5016 33.0307 20.8043C33.7616 21.1071 34.3864 21.6198 34.8259 22.2776C35.2654 22.9353 35.5 23.7087 35.5 24.4998C35.5 25.5607 35.0786 26.5781 34.3284 27.3283C33.5783 28.0784 32.5609 28.4998 31.5 28.4998ZM44.5 38.4998H23.41C23.1664 37.1093 22.4402 35.8491 21.3593 34.941C20.2783 34.033 18.9118 33.5352 17.5 33.5352C16.0882 33.5352 14.7217 34.033 13.6407 34.941C12.5598 35.8491 11.8336 37.1093 11.59 38.4998H4.5C4.23478 38.4998 3.98043 38.6052 3.79289 38.7927C3.60536 38.9803 3.5 39.2346 3.5 39.4998C3.5 39.7651 3.60536 40.0194 3.79289 40.2069C3.98043 40.3945 4.23478 40.4998 4.5 40.4998H11.59C11.8336 41.8904 12.5598 43.1506 13.6407 44.0586C14.7217 44.9667 16.0882 45.4645 17.5 45.4645C18.9118 45.4645 20.2783 44.9667 21.3593 44.0586C22.4402 43.1506 23.1664 41.8904 23.41 40.4998H44.5C44.7652 40.4998 45.0196 40.3945 45.2071 40.2069C45.3946 40.0194 45.5 39.7651 45.5 39.4998C45.5 39.2346 45.3946 38.9803 45.2071 38.7927C45.0196 38.6052 44.7652 38.4998 44.5 38.4998ZM17.5 43.4998C16.7089 43.4998 15.9355 43.2652 15.2777 42.8257C14.6199 42.3862 14.1072 41.7615 13.8045 41.0306C13.5017 40.2997 13.4225 39.4954 13.5769 38.7195C13.7312 37.9435 14.1122 37.2308 14.6716 36.6714C15.231 36.112 15.9437 35.731 16.7196 35.5767C17.4956 35.4224 18.2998 35.5016 19.0307 35.8043C19.7616 36.1071 20.3864 36.6198 20.8259 37.2776C21.2654 37.9354 21.5 38.7087 21.5 39.4998C21.5 40.5607 21.0786 41.5781 20.3284 42.3283C19.5783 43.0784 18.5609 43.4998 17.5 43.4998Z" fill="#323232"/>
</svg>
