<svg width="18" height="19" viewBox="0 0 18 19" fill="none" xmlns="http://www.w3.org/2000/svg">
<path fill-rule="evenodd" clip-rule="evenodd" d="M9.00093 0.966797C6.68339 0.966797 6.39255 0.97693 5.48232 1.01835C4.57386 1.05995 3.95377 1.20378 3.41118 1.4148C2.84993 1.63276 2.37384 1.92432 1.89952 2.39881C1.42485 2.87313 1.13329 3.34922 0.914624 3.91029C0.703066 4.45305 0.559065 5.07333 0.518175 5.98143C0.477464 6.89166 0.466797 7.18268 0.466797 9.50022C0.466797 11.8178 0.477108 12.1077 0.518353 13.0179C0.560131 13.9264 0.703955 14.5465 0.914802 15.0891C1.13294 15.6503 1.4245 16.1264 1.89899 16.6007C2.37313 17.0754 2.84922 17.3677 3.41012 17.5856C3.95306 17.7967 4.57333 17.9405 5.4816 17.9821C6.39184 18.0235 6.68251 18.0336 8.99986 18.0336C11.3176 18.0336 11.6075 18.0235 12.5178 17.9821C13.4262 17.9405 14.047 17.7967 14.59 17.5856C15.151 17.3677 15.6264 17.0754 16.1006 16.6007C16.5752 16.1264 16.8668 15.6503 17.0855 15.0893C17.2952 14.5465 17.4392 13.9262 17.4819 13.0181C17.5228 12.1079 17.5335 11.8178 17.5335 9.50022C17.5335 7.18268 17.5228 6.89184 17.4819 5.9816C17.4392 5.07315 17.2952 4.45306 17.0855 3.91047C16.8668 3.34922 16.5752 2.87313 16.1006 2.39881C15.6259 1.92414 15.1512 1.63258 14.5894 1.4148C14.0454 1.20378 13.425 1.05995 12.5165 1.01835C11.6063 0.97693 11.3165 0.966797 8.99826 0.966797H9.00093ZM8.23537 2.50457C8.46258 2.50421 8.71609 2.50457 9.00089 2.50457C11.2793 2.50457 11.5494 2.51274 12.4491 2.55363C13.2811 2.59168 13.7327 2.7307 14.0335 2.8475C14.4317 3.00217 14.7156 3.18706 15.0141 3.48573C15.3128 3.7844 15.4977 4.06885 15.6527 4.46708C15.7695 4.76752 15.9087 5.21908 15.9466 6.05109C15.9875 6.95066 15.9963 7.22088 15.9963 9.49824C15.9963 11.7756 15.9875 12.0458 15.9466 12.9454C15.9085 13.7774 15.7695 14.229 15.6527 14.5294C15.498 14.9276 15.3128 15.2112 15.0141 15.5097C14.7154 15.8084 14.4319 15.9932 14.0335 16.1479C13.733 16.2652 13.2811 16.4039 12.4491 16.442C11.5495 16.4828 11.2793 16.4917 9.00089 16.4917C6.72229 16.4917 6.45224 16.4828 5.55268 16.442C4.72067 16.4036 4.26911 16.2645 3.96813 16.1477C3.5699 15.9931 3.28546 15.8082 2.98679 15.5095C2.68812 15.2108 2.50323 14.9271 2.3482 14.5287C2.2314 14.2282 2.0922 13.7767 2.05433 12.9447C2.01344 12.0451 2.00527 11.7749 2.00527 9.49611C2.00527 7.21733 2.01344 6.94852 2.05433 6.04896C2.09238 5.21695 2.2314 4.76539 2.3482 4.46459C2.50287 4.06636 2.68812 3.78191 2.98679 3.48324C3.28546 3.18457 3.5699 2.99968 3.96813 2.84466C4.26893 2.72732 4.72067 2.58866 5.55268 2.55043C6.33989 2.51488 6.64496 2.50421 8.23537 2.50243V2.50457ZM13.556 3.92147C12.9906 3.92147 12.532 4.37961 12.532 4.94513C12.532 5.51047 12.9906 5.96914 13.556 5.96914C14.1213 5.96914 14.58 5.51047 14.58 4.94513C14.58 4.37979 14.1213 3.92147 13.556 3.92147ZM9.00095 5.11793C6.58083 5.11793 4.61868 7.08008 4.61868 9.5002C4.61868 11.9203 6.58083 13.8816 9.00095 13.8816C11.4211 13.8816 13.3825 11.9203 13.3825 9.5002C13.3825 7.08008 11.4211 5.11793 9.00095 5.11793ZM9.00091 6.65572C10.5718 6.65572 11.8454 7.92916 11.8454 9.5002C11.8454 11.0711 10.5718 12.3447 9.00091 12.3447C7.42987 12.3447 6.15644 11.0711 6.15644 9.5002C6.15644 7.92916 7.42987 6.65572 9.00091 6.65572Z" fill="#3A3A3C"/>
</svg>
