<svg width="30" height="30" viewBox="0 0 30 30" fill="none" xmlns="http://www.w3.org/2000/svg">
<path fill-rule="evenodd" clip-rule="evenodd" d="M16.0003 5.6665C16.0003 5.11422 15.5526 4.6665 15.0003 4.6665C14.448 4.6665 14.0003 5.11422 14.0003 5.6665V6.07729C13.5647 6.18659 13.1372 6.35736 12.7301 6.59236C9.10097 8.68765 9.56222 14.065 13.4952 15.5117L14.0003 15.6975V21.9591C13.2872 21.7579 12.65 21.2891 12.2511 20.5982L11.7503 19.7308C11.4742 19.2526 10.8626 19.0887 10.3843 19.3648C9.90599 19.641 9.74212 20.2526 10.0183 20.7308L10.519 21.5982C11.2903 22.9341 12.5906 23.7726 14.0003 24.0045V24.3332C14.0003 24.8855 14.448 25.3332 15.0003 25.3332C15.5526 25.3332 16.0003 24.8855 16.0003 24.3332V23.9225C16.4361 23.8132 16.8637 23.6424 17.2708 23.4073C20.9 21.312 20.4387 15.9346 16.5057 14.488L16.0003 14.3021L16.0003 8.04052C16.7136 8.24164 17.3509 8.71045 17.7499 9.40151L18.2506 10.2688C18.5268 10.7471 19.1384 10.911 19.6167 10.6349C20.095 10.3587 20.2588 9.74713 19.9827 9.26884L19.4819 8.40151C18.7106 7.06553 17.4102 6.22692 16.0003 5.99516V5.6665ZM13.7301 8.32441C13.8189 8.27318 13.909 8.22712 14.0003 8.18613L14.0003 13.5598C11.831 12.6018 11.6278 9.53816 13.7301 8.32441ZM16.2708 21.6753C16.182 21.7266 16.0917 21.7727 16.0003 21.8137V16.4398C18.1699 17.3976 18.3732 20.4615 16.2708 21.6753Z" fill="#224C72"/>
<path fill-rule="evenodd" clip-rule="evenodd" d="M15.0003 0.666504C7.08424 0.666504 0.666992 7.08376 0.666992 14.9998C0.666992 22.9159 7.08424 29.3332 15.0003 29.3332C22.9164 29.3332 29.3337 22.9159 29.3337 14.9998C29.3337 7.08376 22.9164 0.666504 15.0003 0.666504ZM2.66699 14.9998C2.66699 8.18833 8.18881 2.6665 15.0003 2.6665C21.8118 2.6665 27.3337 8.18833 27.3337 14.9998C27.3337 21.8113 21.8118 27.3332 15.0003 27.3332C8.18881 27.3332 2.66699 21.8113 2.66699 14.9998Z" fill="#224C72"/>
</svg>
