<svg width="27" height="25" viewBox="0 0 27 25" fill="none" xmlns="http://www.w3.org/2000/svg">
<path fill-rule="evenodd" clip-rule="evenodd" d="M11.3656 2.0279C9.13406 0.61234 5.53015 -0.72624 2.41787 2.44762C-4.97013 9.98182 7.69963 24.5 13.4998 24.5C19.3 24.5 31.9698 9.98182 24.5818 2.44762C21.4696 -0.726205 17.8657 0.612357 15.6341 2.02791C14.3732 2.82776 12.6265 2.82775 11.3656 2.0279ZM19.8251 3.56522C19.3089 3.36903 18.7313 3.62851 18.5351 4.14477C18.3389 4.66104 18.5984 5.23859 19.1147 5.43478C19.5956 5.61754 20.0976 5.92719 20.602 6.42725C21.2444 7.0641 21.6509 7.7621 21.8775 8.49698C22.0402 9.02474 22.6 9.32065 23.1278 9.1579C23.6555 8.99515 23.9514 8.43539 23.7887 7.90763C23.4639 6.85424 22.8826 5.87199 22.0102 5.00699C21.3219 4.32458 20.5861 3.85441 19.8251 3.56522Z" fill="#F78495"/>
</svg>
