<svg width="80" height="80" viewBox="0 0 80 80" fill="none" xmlns="http://www.w3.org/2000/svg">
<path opacity="0.3" d="M80 40C80 62.0914 62.0914 80 40 80C17.9086 80 0 62.0914 0 40C0 17.9086 17.9086 0 40 0C62.0914 0 80 17.9086 80 40ZM10.9071 40C10.9071 56.0675 23.9325 69.0929 40 69.0929C56.0675 69.0929 69.0929 56.0675 69.0929 40C69.0929 23.9325 56.0675 10.9071 40 10.9071C23.9325 10.9071 10.9071 23.9325 10.9071 40Z" fill="black"/>
<circle cx="40" cy="40" r="29" fill="black"/>
<path d="M39.9831 22.5879C41.0045 22.5879 42.0041 22.7362 42.7575 23.0176V23.0186L51.0749 26.1357H51.0759C53.2954 26.9625 55.0505 29.5081 55.0505 31.8672V44.25C55.0505 45.3372 54.7063 46.5899 54.1237 47.749C53.5777 48.8353 52.8403 49.8029 52.0309 50.4561L51.8679 50.583L44.7009 55.9326L44.695 55.9375C43.4123 56.9266 41.7237 57.4336 39.9997 57.4336C38.277 57.4335 36.5846 56.9268 35.2643 55.9482H35.2634L28.0993 50.5996C27.2266 49.9489 26.4253 48.9213 25.8425 47.7598C25.2596 46.5981 24.9167 45.3452 24.9167 44.2666V31.8672C24.9167 29.5817 26.5634 27.1209 28.6843 26.2178L28.8913 26.1357H28.8923L37.2087 23.0186C37.9621 22.737 38.9615 22.5879 39.9831 22.5879ZM40.0007 24.0859C39.3018 24.0878 38.5814 24.1706 37.988 24.3496L37.7419 24.4316L37.7409 24.4326L29.4245 27.5488H29.4235C28.596 27.8604 27.8548 28.5229 27.3239 29.291C26.7928 30.0594 26.4333 30.9903 26.4333 31.8838V44.2666C26.4333 45.1611 26.7439 46.1898 27.2009 47.1016C27.6006 47.8991 28.1372 48.6566 28.739 49.1875L29.0007 49.4014L36.1677 54.751C37.2295 55.5449 38.6281 55.9257 40.0016 55.9258C41.2898 55.9258 42.6029 55.5906 43.6432 54.8955L43.8474 54.752L43.8493 54.751L51.0153 49.4014L51.0163 49.4004C51.731 48.8643 52.3666 48.0054 52.822 47.0947C53.2773 46.1841 53.5837 45.16 53.5837 44.2666V31.8672C53.5837 30.9811 53.2233 30.0543 52.6931 29.2871C52.1958 28.5677 51.5142 27.9384 50.7516 27.5986L50.5974 27.5342L50.5925 27.5322L42.2751 24.415L42.2663 24.4121L42.0182 24.333C41.4214 24.1625 40.7 24.084 40.0007 24.0859Z" fill="white" stroke="white"/>
<path d="M44.4039 34.7695C44.674 34.4998 45.1154 34.4827 45.4069 34.7188L45.4635 34.7695C45.7336 35.0397 45.75 35.4819 45.5133 35.7734L45.4635 35.8291L38.2965 42.9961C38.1452 43.1474 37.9574 43.2158 37.7662 43.2158C37.5991 43.2157 37.4352 43.1632 37.2955 43.0488L37.2369 42.9961L34.5533 40.3125C34.2836 40.0425 34.2666 39.601 34.5026 39.3096L34.5533 39.2529C34.8234 38.9829 35.2657 38.9658 35.5573 39.2021L35.6129 39.2529L37.7662 41.4062L38.1207 41.0527L44.4039 34.7695Z" fill="white" stroke="white"/>
</svg>
