<svg width="80" height="81" viewBox="0 0 80 81" fill="none" xmlns="http://www.w3.org/2000/svg">
<path opacity="0.3" d="M80 40.5C80 62.5914 62.0914 80.5 40 80.5C17.9086 80.5 0 62.5914 0 40.5C0 18.4086 17.9086 0.5 40 0.5C62.0914 0.5 80 18.4086 80 40.5ZM10.9071 40.5C10.9071 56.5675 23.9325 69.5929 40 69.5929C56.0675 69.5929 69.0929 56.5675 69.0929 40.5C69.0929 24.4325 56.0675 11.4071 40 11.4071C23.9325 11.4071 10.9071 24.4325 10.9071 40.5Z" fill="#323232"/>
<circle cx="40" cy="40.5" r="29" fill="black"/>
<path d="M40.4274 50.2734H40.9274C41.4737 50.2734 42.0006 50.0834 42.4196 49.7402L42.5924 49.584C43.0339 49.1425 43.2818 48.5433 43.2819 47.9189C43.2819 47.3726 43.0919 46.8457 42.7487 46.4268L42.5924 46.2539C42.1508 45.8123 41.5518 45.5645 40.9274 45.5645H40.4274V50.2734ZM39.0729 40.001C38.5264 40.001 37.9997 40.1908 37.5807 40.5342L37.4078 40.6904C36.9664 41.132 36.7184 41.7311 36.7184 42.3555C36.7185 42.9796 36.9666 43.5781 37.4078 44.0195C37.8494 44.4611 38.4484 44.7099 39.0729 44.71H39.5729V40.001H39.0729ZM39.5729 45.5645H39.0729C38.2752 45.5644 37.5081 45.2671 36.9196 44.7344L36.8033 44.624C36.2018 44.0223 35.864 43.2063 35.8639 42.3555C35.8639 41.5576 36.161 40.7898 36.694 40.2012L36.8033 40.0859C37.4051 39.4841 38.2218 39.1465 39.0729 39.1465H39.5729V38.2188H40.4274V39.1465H40.9274C41.5082 39.1465 42.0768 39.3034 42.5729 39.5996L42.7809 39.7354C43.2548 40.0705 43.6279 40.5268 43.8619 41.0547L43.9537 41.2861C43.963 41.3125 43.9693 41.3397 43.9733 41.3672L43.9772 41.4502C43.9742 41.5062 43.9604 41.5617 43.9362 41.6123C43.9241 41.6374 43.9098 41.6614 43.8932 41.6836L43.8365 41.7461C43.8158 41.7647 43.793 41.7807 43.7692 41.7949L43.693 41.8311C43.6401 41.8497 43.584 41.8575 43.528 41.8545C43.4999 41.853 43.4721 41.8487 43.4449 41.8418L43.3668 41.8135C43.2901 41.7768 43.2261 41.7185 43.1832 41.6465L43.1481 41.5703C43.006 41.1686 42.7575 40.8136 42.4313 40.543L42.2867 40.4326C41.8891 40.1516 41.4143 40.0009 40.9274 40.001H40.4274V44.71H40.9274C41.7785 44.71 42.5951 45.0476 43.1969 45.6494C43.7986 46.2512 44.1364 47.0679 44.1364 47.9189C44.1363 48.7698 43.7985 49.5858 43.1969 50.1875C42.5951 50.7893 41.7785 51.1279 40.9274 51.1279H40.4274V52.0547H39.5729V51.1279H39.0729C38.492 51.1279 37.9235 50.9701 37.4274 50.6738L37.2194 50.5391C36.7452 50.2038 36.3724 49.7468 36.1383 49.2188L36.0465 48.9883L36.0416 48.9746L36.0192 48.8926C36.0144 48.8646 36.0124 48.8361 36.0133 48.8076C36.0142 48.7789 36.0184 48.7504 36.025 48.7227L36.0524 48.6426C36.0642 48.6168 36.0787 48.5921 36.0953 48.5693L36.153 48.5059C36.1742 48.4865 36.1968 48.4688 36.2213 48.4541L36.2985 48.418C36.3251 48.4086 36.3527 48.4024 36.3805 48.3984L36.4664 48.3945C36.5234 48.398 36.5794 48.4132 36.6305 48.4385C36.656 48.4512 36.6804 48.466 36.7028 48.4834L36.7643 48.542C36.783 48.5637 36.7992 48.5875 36.8131 48.6123L36.8473 48.6904L36.8492 48.6973L36.8522 48.7041C37.1767 49.6188 38.048 50.2734 39.0729 50.2734H39.5729V45.5645Z" fill="white" stroke="white"/>
<path d="M40.0361 24.3096C43.6945 24.3096 47.0515 25.3939 49.2852 26.417L49.7168 26.6201L49.8447 26.6826C50.284 26.9 50.6638 27.1086 50.9766 27.2949L47.8457 31.873L47.6143 32.2109L47.9014 32.5049C49.8396 34.4865 51.6698 37.017 52.9805 39.6924C54.2934 42.3725 55.0683 45.1629 54.9414 47.6738C54.8155 50.1639 53.8056 52.3867 51.5166 54.0039C49.2054 55.6367 45.538 56.6885 40.0361 56.6885C34.5332 56.6884 30.8546 55.6549 28.5283 54.0439C26.2249 52.4488 25.1988 50.2546 25.0576 47.7861C24.9153 45.2956 25.6757 42.5154 26.9834 39.8203C28.2888 37.1301 30.1227 34.5595 32.0811 32.499L32.3594 32.207L32.1328 31.874L29.0225 27.2969L29.543 27.0068L29.5449 27.0059L30.1611 26.6904L30.2197 26.6621C32.4563 25.576 36.0841 24.3096 40.0361 24.3096ZM46.957 33.1982C42.6083 34.8799 37.3703 34.8801 33.0215 33.2002L32.7061 33.0781L32.4756 33.3262C30.7714 35.163 29.1778 37.3909 27.9844 39.7246L27.751 40.1934C26.5598 42.6491 25.8686 45.1149 25.8955 47.3037L25.9102 47.7373C26.0296 49.8324 26.8385 51.6687 28.6396 53.0684L29.0127 53.3418C31.1392 54.8137 34.6197 55.834 40.0352 55.834C45.1083 55.834 48.4721 54.9218 50.6104 53.5801L51.0215 53.3057C52.9431 51.9475 53.8549 50.1351 54.0557 48.0508L54.0869 47.6299C54.1965 45.4582 53.5737 42.9997 52.4443 40.5566L52.2119 40.0674L52.2109 40.0654L51.9766 39.6045C50.7861 37.3115 49.2793 35.196 47.5 33.3203L47.2695 33.0771L46.957 33.1982ZM48.7627 27.5811C46.4933 27.7445 43.8596 28.2299 41.2637 28.9199L40.1553 29.2275C38.2952 29.7649 36.2165 29.7272 34.2295 29.4004L33.834 29.3311C33.3047 29.2329 32.7788 29.1167 32.2578 28.9814L30.9727 28.6475L31.7188 29.7461L33.499 32.3672L33.5908 32.5029L33.7451 32.5576C37.6692 33.9546 42.2998 33.9546 46.2246 32.5596L46.3779 32.5049L46.4697 32.3701L49.2119 28.3623L49.7969 27.5068L48.7627 27.5811ZM40.0352 25.1641C36.9585 25.1641 34.088 25.9675 31.9893 26.8115L31.5801 26.9805L30.3008 27.5234L31.6328 27.9199C32.2006 28.0888 32.7884 28.2414 33.3867 28.3701L33.9873 28.4902H33.9883C35.8959 28.8416 37.8473 28.9203 39.5742 28.4971L39.917 28.4062L39.918 28.4053C41.8862 27.8319 43.8882 27.3816 45.9121 27.0557L45.9766 26.083C44.2351 25.5587 42.1902 25.1641 40.0352 25.1641Z" fill="white" stroke="white"/>
</svg>
