<svg width="16" height="13" viewBox="0 0 16 13" fill="none" xmlns="http://www.w3.org/2000/svg">
<path fill-rule="evenodd" clip-rule="evenodd" d="M7.5208 3.50461L7.55438 4.05825L6.99479 3.99045C4.95791 3.73058 3.17843 2.84929 1.66756 1.36916L0.928908 0.634741L0.73865 1.17708C0.33575 2.38604 0.593158 3.66279 1.43253 4.52149C1.8802 4.99604 1.77948 5.06383 1.00725 4.78136C0.73865 4.69097 0.503625 4.62318 0.481242 4.65708C0.4029 4.73617 0.6715 5.76435 0.884142 6.1711C1.17513 6.73604 1.76828 7.28967 2.4174 7.61734L2.96579 7.87721L2.31668 7.8885C1.68994 7.8885 1.66756 7.8998 1.73471 8.13708C1.95854 8.87149 2.84268 9.6511 3.82755 9.99006L4.52143 10.2273L3.91708 10.5889C3.02175 11.1086 1.96973 11.4024 0.917717 11.425C0.414092 11.4363 0 11.4815 0 11.5154C0 11.6284 1.36538 12.2611 2.15999 12.5097C4.54382 13.2441 7.37531 12.9277 9.50173 11.6736C11.0126 10.781 12.5235 9.00708 13.2286 7.28967C13.6091 6.37448 13.9896 4.70227 13.9896 3.90006C13.9896 3.38032 14.0232 3.31253 14.6499 2.6911C15.0192 2.32955 15.3662 1.93409 15.4333 1.8211C15.5452 1.60643 15.534 1.60643 14.9633 1.79851C14.012 2.13747 13.8777 2.09227 14.3477 1.58383C14.6947 1.22227 15.1088 0.566949 15.1088 0.374871C15.1088 0.340975 14.9409 0.397468 14.7506 0.499157C14.5492 0.612144 14.1015 0.781624 13.7658 0.883312L13.1614 1.07539L12.613 0.702533C12.3108 0.499157 11.8856 0.273183 11.6617 0.205391C11.0909 0.0472089 10.218 0.0698062 9.70318 0.250585C8.30422 0.759027 7.42008 2.06968 7.5208 3.50461Z" fill="#3A3A3C"/>
</svg>
