<svg width="32" height="32" viewBox="0 0 32 32" fill="none" xmlns="http://www.w3.org/2000/svg">
<path d="M20.848 16.1514C20.2957 16.1514 19.848 16.5991 19.848 17.1514C19.848 17.7037 20.2957 18.1514 20.848 18.1514H24.4843C25.0366 18.1514 25.4843 17.7037 25.4843 17.1514C25.4843 16.5991 25.0366 16.1514 24.4843 16.1514H20.848Z" fill="#2D264B"/>
<path fill-rule="evenodd" clip-rule="evenodd" d="M26.1961 4.50313C26.2993 5.09508 26.3243 5.79853 26.3313 6.60336C26.4469 6.66369 26.5604 6.72791 26.672 6.79627C27.7036 7.42843 28.5709 8.29576 29.2031 9.32735C29.8991 10.4632 30.1522 11.7795 30.2567 13.4526C30.3328 14.6698 30.3328 16.1503 30.3328 17.9686V18.0062C30.3328 19.0489 30.3328 19.9777 30.3191 20.8043C30.2764 23.3749 30.11 25.1924 29.2031 26.6723C28.5709 27.7039 27.7036 28.5713 26.672 29.2034C25.6869 29.8071 24.5694 30.0761 23.2047 30.2059C21.8658 30.3332 20.1899 30.3332 18.0521 30.3332H13.947C11.8092 30.3332 10.1332 30.3332 8.79429 30.2059C7.42955 30.0761 6.31208 29.8071 5.32699 29.2034C4.2954 28.5713 3.42806 27.7039 2.7959 26.6723C2.19223 25.6872 1.92319 24.5698 1.79343 23.205C1.66613 21.8661 1.66613 20.1902 1.66614 18.0523L1.66625 17.3514C1.64868 16.6925 1.65408 15.9559 1.65989 15.1616C1.66296 14.743 1.66614 14.3084 1.66614 13.8607L1.66614 13.8029C1.66613 11.5199 1.66612 9.72812 1.81391 8.30608C1.96464 6.85568 2.27808 5.67267 2.98498 4.65831C3.41207 4.04546 3.93022 3.50481 4.52131 3.05709C5.50573 2.31144 6.65769 1.97997 8.06252 1.82129C9.43309 1.66649 11.1573 1.6665 13.3414 1.66651L20.6322 1.66651C21.6969 1.66646 22.5994 1.66642 23.3189 1.76727C24.0873 1.87498 24.7926 2.11459 25.3569 2.70288C25.8467 3.21351 26.0787 3.82955 26.1961 4.50313ZM20.5619 3.66651C21.7161 3.66651 22.477 3.66881 23.0412 3.7479C23.5723 3.82234 23.7789 3.94703 23.9135 4.08734C24.038 4.21711 24.1502 4.41302 24.2258 4.84659C24.2764 5.13649 24.3039 5.49082 24.3185 5.9441C23.7682 5.84336 23.1743 5.7813 22.5273 5.74138C21.314 5.66651 19.8394 5.66651 18.0304 5.66651H13.947C11.8092 5.6665 10.1332 5.66649 8.79429 5.7938C7.42955 5.92356 6.31208 6.1926 5.32699 6.79627C4.79594 7.12169 4.30843 7.50944 3.87412 7.94982C4.02047 6.98005 4.26013 6.32657 4.62583 5.80182C4.9346 5.35875 5.30715 4.97082 5.7289 4.65137C6.31253 4.2093 7.063 3.94691 8.28699 3.80866C9.53227 3.668 11.1436 3.66651 13.4036 3.66651H20.5619ZM6.37198 8.50155C6.99002 8.12282 7.76526 7.90066 8.98359 7.78482C10.2168 7.66756 11.7978 7.66651 13.9995 7.66651H17.9995C19.8456 7.66651 21.2594 7.66694 22.4042 7.73758C23.5479 7.80815 24.3475 7.94573 24.9778 8.18511C25.2138 8.27476 25.4275 8.37931 25.627 8.50155C26.3895 8.9688 27.0305 9.60987 27.4978 10.3723C27.8266 10.9089 28.0361 11.5612 28.1617 12.515H20.848C18.2874 12.515 16.2116 14.5908 16.2116 17.1514C16.2116 19.712 18.2874 21.7877 20.848 21.7877H28.2919C28.2149 23.7348 28.0024 24.8038 27.4978 25.6273C27.0305 26.3898 26.3895 27.0309 25.627 27.4981C25.0089 27.8769 24.2337 28.099 23.0154 28.2149C21.7821 28.3321 20.2011 28.3332 17.9995 28.3332H13.9995C11.7978 28.3332 10.2168 28.3321 8.98359 28.2149C7.76526 28.099 6.99002 27.8769 6.37198 27.4981C5.6095 27.0309 4.96843 26.3898 4.50118 25.6273C4.12245 25.0093 3.90029 24.2341 3.78445 23.0157C3.6672 21.7825 3.66614 20.2015 3.66614 17.9998C3.66614 15.7982 3.6672 14.2172 3.78445 12.984C3.90029 11.7656 4.12245 10.9904 4.50118 10.3723C4.96843 9.60987 5.6095 8.9688 6.37198 8.50155ZM18.2116 17.1514C18.2116 15.6954 19.3919 14.515 20.848 14.515H28.3029C28.3326 15.4802 28.3328 16.6191 28.3328 17.9998C28.3328 18.6451 28.3328 19.2385 28.3297 19.7877H20.848C19.3919 19.7877 18.2116 18.6074 18.2116 17.1514Z" fill="#2D264B"/>
</svg>
