<svg width="32" height="26" viewBox="0 0 32 26" fill="none" xmlns="http://www.w3.org/2000/svg">
<path d="M7.06977 19.3143C6.45326 19.3143 5.95349 19.8132 5.95349 20.4286C5.95349 21.044 6.45326 21.5429 7.06977 21.5429H10.0465C10.663 21.5429 11.1628 21.044 11.1628 20.4286C11.1628 19.8132 10.663 19.3143 10.0465 19.3143H7.06977Z" fill="#2D264B"/>
<path d="M14.5116 19.3143C13.8951 19.3143 13.3953 19.8132 13.3953 20.4286C13.3953 21.044 13.8951 21.5429 14.5116 21.5429H20.4651C21.0816 21.5429 21.5814 21.044 21.5814 20.4286C21.5814 19.8132 21.0816 19.3143 20.4651 19.3143H14.5116Z" fill="#2D264B"/>
<path fill-rule="evenodd" clip-rule="evenodd" d="M23.9554 0.104909C22.669 -1.211e-05 21.0683 -6.70911e-06 19.0267 1.09663e-07H12.9733C10.9317 -6.70911e-06 9.33103 -1.211e-05 8.04456 0.104909C6.73458 0.211748 5.65237 0.432905 4.67283 0.931116C3.06251 1.75015 1.75328 3.05704 0.932782 4.66448C0.214236 6.07219 0.0604241 7.72479 0.0166475 10.0072C1.09506e-07 10.8752 1.09858e-07 11.8638 1.09858e-07 12.9914V13.0499C-6.72111e-06 15.0878 -1.21316e-05 16.6856 0.105097 17.9698C0.212126 19.2774 0.43368 20.3577 0.932782 21.3355C1.75328 22.943 3.06251 24.2499 4.67283 25.0689C5.65237 25.5671 6.73458 25.7883 8.04456 25.8951C9.33101 26 10.9316 26 12.9732 26H19.0267C21.0683 26 22.669 26 23.9554 25.8951C25.2654 25.7883 26.3476 25.5671 27.3272 25.0689C28.9375 24.2499 30.2467 22.943 31.0672 21.3355C31.5663 20.3577 31.7879 19.2774 31.8949 17.9698C32 16.6857 32 15.0879 32 13.05V12.9914C32 11.8638 32 10.8752 31.9834 10.0072C31.9396 7.72479 31.7858 6.07219 31.0672 4.66448C30.2467 3.05704 28.9375 1.75015 27.3272 0.931116C26.3476 0.432905 25.2654 0.211747 23.9554 0.104909ZM5.68639 2.91679C6.29874 2.60533 7.05444 2.42166 8.22636 2.32608C9.4113 2.22944 10.9209 2.22857 13.0233 2.22857H18.9767C21.0791 2.22857 22.5887 2.22944 23.7736 2.32608C24.9456 2.42166 25.7013 2.60533 26.3136 2.91679C27.5038 3.52216 28.4715 4.48812 29.078 5.67623C29.4562 6.41713 29.6372 7.34265 29.7144 8.91429H2.28564C2.36282 7.34265 2.54382 6.41713 2.92201 5.67623C3.52846 4.48812 4.49615 3.52216 5.68639 2.91679ZM2.23256 13C2.23256 12.3244 2.23257 11.7085 2.23598 11.1429H29.764C29.7674 11.7085 29.7674 12.3244 29.7674 13C29.7674 15.0986 29.7666 16.6055 29.6698 17.7883C29.574 18.9582 29.39 19.7125 29.078 20.3238C28.4715 21.5119 27.5038 22.4778 26.3136 23.0832C25.7013 23.3947 24.9456 23.5783 23.7736 23.6739C22.5887 23.7706 21.0791 23.7714 18.9767 23.7714H13.0233C10.9209 23.7714 9.4113 23.7706 8.22636 23.6739C7.05444 23.5783 6.29874 23.3947 5.68639 23.0832C4.49615 22.4778 3.52846 21.5119 2.92201 20.3238C2.60999 19.7125 2.42599 18.9582 2.33024 17.7883C2.23343 16.6055 2.23256 15.0986 2.23256 13Z" fill="#2D264B"/>
</svg>
