<svg width="18" height="13" viewBox="0 0 18 13" fill="none" xmlns="http://www.w3.org/2000/svg">
<path fill-rule="evenodd" clip-rule="evenodd" d="M15.6679 1.00001C16.4022 1.20152 16.9805 1.79526 17.1768 2.54927C17.5335 3.91581 17.5335 6.76712 17.5335 6.76712C17.5335 6.76712 17.5335 9.61833 17.1768 10.985C16.9805 11.739 16.4022 12.3327 15.6679 12.5343C14.3371 12.9005 9.00013 12.9005 9.00013 12.9005C9.00013 12.9005 3.66321 12.9005 2.3323 12.5343C1.59795 12.3327 1.01962 11.739 0.823354 10.985C0.466797 9.61833 0.466797 6.76712 0.466797 6.76712C0.466797 6.76712 0.466797 3.91581 0.823354 2.54927C1.01962 1.79526 1.59795 1.20152 2.3323 1.00001C3.66321 0.633789 9.00013 0.633789 9.00013 0.633789C9.00013 0.633789 14.3371 0.633789 15.6679 1.00001ZM7.40015 4.36707V9.7004L11.6668 7.03383L7.40015 4.36707Z" fill="#3A3A3C"/>
</svg>
